<svg xmlns="http://www.w3.org/2000/svg" xmlns:xlink="http://www.w3.org/1999/xlink" version="1.1" id="Capa_1" x="0px" y="0px" viewBox="0 0 79.536 79.536" style="width: 200px; height: 200px; transform-origin: 50% 50%; transform: scaleX(1) scaleY(1) rotate(0deg);" xml:space="preserve" preserveAspectRatio="xMidYMid meet">
<g style="fill:#009BFF" data-editor-stroke-width-attr="" data-editor-stroke-width-style="">
	<path style="fill:#009BFF" d="M70.268,63.654v2.382c0,7.421-6.079,13.5-13.5,13.5H22.773c-7.428,0-13.504-6.079-13.504-13.5   v-2.382c2.752,4.63,7.741,7.768,13.504,7.768h33.994C62.526,71.422,67.513,68.284,70.268,63.654z M56.768,36.951H22.773   c-7.428,0-13.504,6.074-13.504,13.505v5.214c0,7.421,6.077,13.505,13.504,13.505h33.994c7.421,0,13.5-6.074,13.5-13.505v-5.214   C70.268,43.025,64.188,36.951,56.768,36.951 M57.421,4.914c-5.163,0-9.337,4.174-9.337,9.339c0,5.149,4.174,9.32,9.337,9.32   c5.151,0,9.325-4.171,9.325-9.32C66.746,9.088,62.572,4.914,57.421,4.914z M43.176,6.882C43.176,3.086,40.092,0,36.302,0   c-3.793,0-6.874,3.086-6.874,6.882c0,1.548,0.53,2.964,1.396,4.106c0.916-0.448,1.931-0.723,3.016-0.723   c2.255,0,4.233,1.087,5.494,2.752C41.602,11.894,43.176,9.582,43.176,6.882z M26.921,17.187c0-0.166,0.036-0.319,0.046-0.479   c-0.536-0.116-1.082-0.188-1.654-0.188c-4.194,0-7.591,3.396-7.591,7.591c0,4.199,3.396,7.599,7.591,7.599   c4.199,0,7.599-3.399,7.599-7.599c0-0.031-0.01-0.062-0.01-0.096C29.528,23.548,26.921,20.684,26.921,17.187z M33.839,11.788   c-2.98,0-5.401,2.423-5.401,5.403s2.421,5.408,5.401,5.408c2.985,0,5.414-2.423,5.414-5.408   C39.248,14.211,36.824,11.788,33.839,11.788z" data-editor-stroke-width-attr="" data-editor-stroke-width-style=""/>
</g>
<g style="fill:#009BFF" data-editor-stroke-width-attr="" data-editor-stroke-width-style="">
</g>
<g style="fill:#009BFF" data-editor-stroke-width-attr="" data-editor-stroke-width-style="">
</g>
<g style="fill:#009BFF" data-editor-stroke-width-attr="" data-editor-stroke-width-style="">
</g>
<g style="fill:#009BFF" data-editor-stroke-width-attr="" data-editor-stroke-width-style="">
</g>
<g style="fill:#009BFF" data-editor-stroke-width-attr="" data-editor-stroke-width-style="">
</g>
<g style="fill:#009BFF" data-editor-stroke-width-attr="" data-editor-stroke-width-style="">
</g>
<g style="fill:#009BFF" data-editor-stroke-width-attr="" data-editor-stroke-width-style="">
</g>
<g style="fill:#009BFF" data-editor-stroke-width-attr="" data-editor-stroke-width-style="">
</g>
<g style="fill:#009BFF" data-editor-stroke-width-attr="" data-editor-stroke-width-style="">
</g>
<g style="fill:#009BFF" data-editor-stroke-width-attr="" data-editor-stroke-width-style="">
</g>
<g style="fill:#009BFF" data-editor-stroke-width-attr="" data-editor-stroke-width-style="">
</g>
<g style="fill:#009BFF" data-editor-stroke-width-attr="" data-editor-stroke-width-style="">
</g>
<g style="fill:#009BFF" data-editor-stroke-width-attr="" data-editor-stroke-width-style="">
</g>
<g style="fill:#009BFF" data-editor-stroke-width-attr="" data-editor-stroke-width-style="">
</g>
<g style="fill:#009BFF" data-editor-stroke-width-attr="" data-editor-stroke-width-style="">
</g>
</svg>